<?xml version="1.0" standalone="no"?>
<!DOCTYPE svg PUBLIC "-//W3C//DTD SVG 20010904//EN"
 "http://www.w3.org/TR/2001/REC-SVG-20010904/DTD/svg10.dtd">
<svg version="1.0" xmlns="http://www.w3.org/2000/svg"
 width="512.000000pt" height="512.000000pt" viewBox="0 0 512.000000 512.000000"
 preserveAspectRatio="xMidYMid meet">
<metadata>
Created by potrace 1.14, written by Peter Selinger 2001-2017
</metadata>
<g transform="translate(0.000000,512.000000) scale(0.100000,-0.100000)"
fill="#000000" stroke="none">
<path d="M2415 5108 c-27 -5 -72 -16 -100 -24 -51 -16 -196 -82 -205 -94 -3
-3 -21 -17 -40 -30 -19 -13 -105 -93 -192 -178 l-156 -154 -59 27 c-78 37
-245 117 -428 205 -82 40 -199 96 -260 125 -60 29 -134 64 -163 78 -70 34
-106 41 -134 27 -43 -22 -248 -233 -259 -268 -19 -58 6 -86 231 -257 113 -86
214 -164 225 -173 11 -9 68 -53 127 -97 59 -44 106 -83 105 -87 -1 -4 -52 -58
-112 -120 -109 -112 -225 -259 -298 -378 l-38 -61 -52 5 c-254 25 -278 26
-307 8 -32 -19 -274 -260 -287 -287 -16 -30 -6 -87 20 -112 15 -15 66 -34 162
-59 77 -21 143 -40 147 -43 4 -3 0 -33 -8 -66 -14 -60 -17 -73 -34 -175 -33
-195 -34 -546 -1 -717 8 -44 10 -39 -84 -248 -70 -157 -150 -431 -186 -635
-23 -133 -31 -364 -16 -490 18 -154 87 -336 171 -454 141 -196 379 -330 645
-363 74 -9 310 -10 386 -1 261 32 572 124 844 250 97 45 100 45 206 28 98 -15
415 -21 510 -9 137 16 151 18 229 34 283 55 554 165 788 318 98 65 107 74 113
108 4 21 2 46 -4 57 -9 17 -3 26 42 63 28 24 82 73 120 108 64 60 69 63 92 51
28 -15 88 -8 109 12 37 37 46 91 21 124 -20 27 -19 36 13 72 15 17 52 69 82
115 l55 85 46 -2 c64 -1 82 17 144 149 100 210 175 456 200 660 4 28 9 61 12
75 2 14 6 106 7 205 3 165 -1 232 -20 370 -10 74 -9 78 46 203 125 280 203
546 235 802 12 102 13 359 1 410 -3 14 -8 41 -11 60 -14 105 -87 283 -152 373
-125 172 -280 279 -494 340 -117 34 -153 39 -329 42 -350 5 -732 -95 -1165
-305 -145 -71 -151 -73 -198 -71 l-28 1 7 58 c11 77 8 221 -5 254 -18 48 -51
61 -164 63 -56 1 -124 -2 -152 -7z m1920 -211 c259 -58 429 -195 518 -417 49
-124 61 -201 61 -385 -1 -253 -37 -429 -156 -758 l-21 -58 -51 128 c-144 359
-394 699 -681 928 -38 30 -75 60 -82 65 -6 5 -52 37 -102 70 -124 83 -282 165
-424 221 -81 31 -113 48 -101 52 11 3 85 28 165 56 81 28 157 52 170 55 13 3
69 14 124 26 55 12 127 24 160 27 33 3 62 7 63 8 11 10 298 -5 357 -18z
m-3797 -3410 c139 -259 338 -503 571 -697 57 -48 249 -182 291 -204 14 -7 61
-33 105 -57 44 -24 138 -67 208 -95 l128 -51 -118 -42 c-143 -51 -122 -44
-268 -80 -66 -17 -142 -33 -170 -37 -27 -3 -72 -10 -100 -14 -79 -13 -331 -4
-408 14 -308 75 -488 258 -554 563 -18 83 -24 334 -10 428 28 188 61 317 129
507 l42 117 51 -127 c28 -70 74 -171 103 -225z"/>
</g>
</svg>
